
<svg width="64" height="64" viewBox="0 0 64 64" fill="none" xmlns="http://www.w3.org/2000/svg">
  <path d="M32 8C18.745 8 8 18.745 8 32C8 45.255 18.745 56 32 56C45.255 56 56 45.255 56 32C56 18.745 45.255 8 32 8Z" stroke="#0EA5E9" stroke-width="4" stroke-linecap="round" stroke-linejoin="round"/>
  <path d="M32 19V32L41 38" stroke="#0EA5E9" stroke-width="4" stroke-linecap="round" stroke-linejoin="round"/>
  <path d="M40 24C42.2091 24 44 22.2091 44 20C44 17.7909 42.2091 16 40 16C37.7909 16 36 17.7909 36 20C36 22.2091 37.7909 24 40 24Z" fill="#F97316"/>
  <path d="M24 44C26.2091 44 28 42.2091 28 40C28 37.7909 26.2091 36 24 36C21.7909 36 20 37.7909 20 40C20 42.2091 21.7909 44 24 44Z" fill="#F97316"/>
  <path d="M36 20L24 40" stroke="#F97316" stroke-width="4" stroke-linecap="round" stroke-linejoin="round"/>
</svg>
